<svg width="42" height="42" viewBox="0 0 42 42" fill="none" xmlns="http://www.w3.org/2000/svg">
<path d="M18.8066 22.25H14.5H11.875V24.8545V27.5H14.5H25H27.625V24.875V14.375V11.75H25.0205H22.375V14.375V18.6816L8.30664 4.61328L6.52246 2.8291L4.73828 4.61328L2.9541 6.39746L4.73828 8.18164L18.8066 22.25Z" fill="#F5F3C2"/>
<path d="M21 5.25C23.8438 5.25 26.4756 5.9541 28.8955 7.3623C31.3154 8.77051 33.2295 10.6846 34.6377 13.1045C36.0459 15.5244 36.75 18.1562 36.75 21C36.75 23.8438 36.0459 26.4756 34.6377 28.8955C33.2295 31.3154 31.3154 33.2295 28.8955 34.6377C26.4756 36.0459 23.8438 36.75 21 36.75C18.1562 36.75 15.5244 36.0459 13.1045 34.6377C10.6846 33.2295 8.77051 31.3154 7.3623 28.8955C5.9541 26.4756 5.25 23.8438 5.25 21V18.375H2.625H0V21C0 23.8438 0.553711 26.5645 1.66113 29.1621C2.76855 31.7598 4.25879 33.9951 6.13184 35.8682C8.00488 37.7412 10.2402 39.2314 12.8379 40.3389C15.4355 41.4463 18.1562 42 21 42C23.8438 42 26.5645 41.4463 29.1621 40.3389C31.7598 39.2314 33.9951 37.7412 35.8682 35.8682C37.7412 33.9951 39.2314 31.7598 40.3389 29.1621C41.4463 26.5645 42 23.8438 42 21C42 18.1562 41.4463 15.4355 40.3389 12.8379C39.2314 10.2402 37.7412 8.00488 35.8682 6.13184C33.9951 4.25879 31.7598 2.76855 29.1621 1.66113C26.5645 0.553711 23.8438 0 21 0H18.375V2.60449V5.25H21Z" fill="#F5F3C2"/>
</svg>
