<svg width="30" height="33" viewBox="0 0 30 33" fill="none" xmlns="http://www.w3.org/2000/svg">
<rect width="30" height="33"/>
<path d="M9.81695 24V11H14.497C15.4036 11 16.2303 11.0933 16.977 11.28C17.7236 11.4667 18.317 11.7933 18.757 12.26C19.197 12.7267 19.417 13.3867 19.417 14.24C19.417 14.8 19.2703 15.36 18.977 15.92C18.6836 16.4667 18.2836 16.84 17.777 17.04V17.12C18.4036 17.2933 18.9303 17.6267 19.357 18.12C19.797 18.6133 20.017 19.2933 20.017 20.16C20.017 21.0533 19.7836 21.7867 19.317 22.36C18.8503 22.92 18.2303 23.3333 17.457 23.6C16.6836 23.8667 15.8303 24 14.897 24H9.81695ZM13.257 16.08H14.417C14.977 16.08 15.3903 15.96 15.657 15.72C15.9236 15.48 16.057 15.16 16.057 14.76C16.057 14.36 15.9236 14.0733 15.657 13.9C15.3903 13.7267 14.977 13.64 14.417 13.64H13.257V16.08ZM13.257 21.36H14.657C15.9903 21.36 16.657 20.88 16.657 19.92C16.657 19.44 16.4903 19.1 16.157 18.9C15.837 18.7 15.337 18.6 14.657 18.6H13.257V21.36Z" fill="#F5F3C2"/>
</svg>
