<svg width="701" height="565" viewBox="0 0 701 565" fill="none" xmlns="http://www.w3.org/2000/svg">
<path d="M449.143 118.054L427.341 16.3121C420.073 -5.49394 367.522 -4.64874 325.597 16.3121C252.922 52.6457 252.922 125.323 252.922 168.928C252.922 240.44 298.374 307.091 383.602 346.864C418.337 363.074 454.591 403.682 460.273 432.091C464.288 450.561 454.541 469.9 427.341 485.5C366.317 520.499 133.317 425.5 0.317383 466.5V564.5H699.317C706.785 505.46 676.817 484.913 667.317 476C647.392 457.305 635.318 422.827 619.364 403.682C599.322 379.632 547.786 333.52 494.364 301.409C450.929 275.302 376.469 248.6 376.469 209.491C376.469 177.306 398.271 154.39 412.806 147.122C432.307 137.372 441.876 132.587 449.143 118.054Z" fill="white"/>
<path d="M565.419 45.3808L427.338 16.311L383.733 45.3808L398.268 110.788L449.14 118.055L565.419 45.3808Z" fill="#FFB672"/>
<circle r="21.8023" transform="matrix(-1 0 0 1 347.4 67.1827)" fill="#202234"/>
<circle r="7.26744" transform="matrix(-1 0 0 1 332.866 67.1825)" fill="white"/>
<mask id="mask0_1_2" style="mask-type:alpha" maskUnits="userSpaceOnUse" x="383" y="16" width="183" height="103">
<path d="M565.419 45.3808L427.338 16.311L383.733 45.3808L398.268 110.788L449.14 118.055L565.419 45.3808Z" fill="#FFAD72"/>
</mask>
<g mask="url(#mask0_1_2)">
<path d="M427.341 67.1843C427.341 75.2117 433.848 81.7192 441.876 81.7192C449.903 81.7192 456.411 75.2117 456.411 67.1843C456.411 66.1454 456.302 65.132 456.094 64.1549C454.701 57.5816 448.864 52.6494 441.876 52.6494C433.848 52.6494 427.341 59.1569 427.341 67.1843Z" fill="#202234"/>
<path fill-rule="evenodd" clip-rule="evenodd" d="M564.432 39.7847L440.885 61.587L442.86 72.7777L566.407 50.9754L564.432 39.7847Z" fill="#202234"/>
</g>
</svg>
