<svg width="30" height="33" viewBox="0 0 30 33" fill="none" xmlns="http://www.w3.org/2000/svg">
<rect width="30" height="33"/>
<rect x="5" y="8" width="2" height="17" fill="#F7F7F7"/>
<rect x="24" y="8" width="2" height="17" fill="#F7F7F7"/>
<path d="M9.75094 22V14.064H12.1029V22H9.75094ZM10.9189 12.896C10.5243 12.896 10.2043 12.784 9.95894 12.56C9.7136 12.336 9.59094 12.0373 9.59094 11.664C9.59094 11.2907 9.7136 10.992 9.95894 10.768C10.2043 10.544 10.5243 10.432 10.9189 10.432C11.3136 10.432 11.6336 10.544 11.8789 10.768C12.1243 10.992 12.2469 11.2907 12.2469 11.664C12.2469 12.0373 12.1243 12.336 11.8789 12.56C11.6336 12.784 11.3136 12.896 10.9189 12.896ZM14.1728 22V14.064H16.0928L16.2528 15.072H16.3168C16.6581 14.752 17.0315 14.4747 17.4368 14.24C17.8528 13.9947 18.3275 13.872 18.8608 13.872C19.7248 13.872 20.3488 14.16 20.7328 14.736C21.1275 15.3013 21.3248 16.08 21.3248 17.072V22H18.9728V17.376C18.9728 16.8 18.8928 16.4053 18.7328 16.192C18.5835 15.9787 18.3381 15.872 17.9968 15.872C17.6981 15.872 17.4421 15.9413 17.2288 16.08C17.0155 16.208 16.7808 16.3947 16.5248 16.64V22H14.1728Z" fill="white"/>
</svg>
