<svg width="1254" height="802" viewBox="0 0 1254 802" fill="none" xmlns="http://www.w3.org/2000/svg">
<circle cx="162" cy="106" r="28" fill="#1A1C2E"/>
<circle cx="27" cy="357" r="19" fill="#1A1C2E"/>
<circle cx="484" cy="418" r="19" fill="#1A1C2E"/>
<circle cx="410" cy="4" r="19" fill="#1A1C2E"/>
<circle cx="720" cy="409" r="19" fill="#1A1C2E"/>
<circle cx="692" cy="87" r="19" fill="#1A1C2E"/>
<circle cx="540" cy="176" r="28" fill="#1A1C2E"/>
<circle cx="162" cy="508" r="28" fill="#1A1C2E"/>
<circle cx="8" cy="774" r="28" fill="#1A1C2E"/>
<path d="M161.5 105.5V-43M161.5 105.5L544 175.5M161.5 105.5L-49.5 219.5L28 359.5M161.5 105.5L411.5 10.5M544 175.5L161.5 506M544 175.5L483 418M161.5 506L10 775M161.5 506L723.5 638M723.5 405L692.5 84L965.5 175.5L1251 -15.5" stroke="#1A1C2E" stroke-width="10"/>
<circle cx="720" cy="637" r="28" fill="#1A1C2E"/>
</svg>
