<svg width="41" height="43" viewBox="0 0 41 43" fill="none" xmlns="http://www.w3.org/2000/svg">
<path d="M0.00012207 10.9393H6.21223M41 10.9393H34.7879M34.7879 10.9393V35.7574C34.7879 38.5189 32.5493 40.7574 29.7879 40.7574H11.2122C8.4508 40.7574 6.21223 38.5188 6.21223 35.7574V10.9393M34.7879 10.9393H6.21223M15.5304 18.3939V33.3029M25.4697 33.3029V18.3939" stroke="#FF7878" stroke-width="3"/>
<path d="M4.42557e-05 10.9394L10.5606 10.9394M40.9999 10.9394L30.4394 10.9394M10.5606 10.9394L10.5606 7.24243C10.5606 4.48101 12.7992 2.24243 15.5606 2.24243L25.4394 2.24244C28.2008 2.24244 30.4394 4.48101 30.4394 7.24244L30.4394 10.9394M10.5606 10.9394L30.4394 10.9394" stroke="#FF7878" stroke-width="3"/>
</svg>
