<svg width="13" height="13" viewBox="0 0 13 13" fill="none" xmlns="http://www.w3.org/2000/svg">
<path d="M7.3125 0.8125C7.3125 0.597012 7.2269 0.390349 7.07452 0.237976C6.92215 0.0856024 6.71549 0 6.5 0C6.28451 0 6.07785 0.0856024 5.92548 0.237976C5.7731 0.390349 5.6875 0.597012 5.6875 0.8125V1.625C5.6875 1.84049 5.7731 2.04715 5.92548 2.19952C6.07785 2.3519 6.28451 2.4375 6.5 2.4375C6.71549 2.4375 6.92215 2.3519 7.07452 2.19952C7.2269 2.04715 7.3125 1.84049 7.3125 1.625V0.8125Z" fill="#F5F3C2"/>
<path d="M11.0964 3.05273C11.2444 2.8995 11.3263 2.69426 11.3245 2.48122C11.3226 2.26819 11.2372 2.0644 11.0865 1.91376C10.9359 1.76311 10.7321 1.67766 10.519 1.67581C10.306 1.67396 10.1008 1.75586 9.94754 1.90386L9.3731 2.4783C9.22509 2.63154 9.1432 2.83678 9.14505 3.04981C9.1469 3.26285 9.23235 3.46663 9.383 3.61727C9.53364 3.76792 9.73742 3.85337 9.95046 3.85522C10.1635 3.85707 10.3687 3.77518 10.522 3.62717L11.0964 3.05273Z" fill="#F5F3C2"/>
<path d="M13 6.5C13 6.71549 12.9144 6.92215 12.762 7.07452C12.6097 7.2269 12.403 7.3125 12.1875 7.3125H11.375C11.1595 7.3125 10.9528 7.2269 10.8005 7.07452C10.6481 6.92215 10.5625 6.71549 10.5625 6.5C10.5625 6.28451 10.6481 6.07785 10.8005 5.92548C10.9528 5.7731 11.1595 5.6875 11.375 5.6875H12.1875C12.403 5.6875 12.6097 5.7731 12.762 5.92548C12.9144 6.07785 13 6.28451 13 6.5Z" fill="#F5F3C2"/>
<path d="M2.4783 3.62717C2.55325 3.70477 2.6429 3.76667 2.74203 3.80925C2.84116 3.85184 2.94778 3.87425 3.05566 3.87519C3.16354 3.87613 3.27053 3.85557 3.37038 3.81471C3.47024 3.77386 3.56096 3.71353 3.63724 3.63724C3.71353 3.56096 3.77386 3.47024 3.81471 3.37038C3.85557 3.27053 3.87613 3.16354 3.87519 3.05566C3.87425 2.94778 3.85184 2.84116 3.80925 2.74203C3.76667 2.6429 3.70477 2.55325 3.62717 2.4783L3.05273 1.90386C2.8995 1.75586 2.69426 1.67396 2.48122 1.67581C2.26819 1.67766 2.0644 1.76311 1.91376 1.91376C1.76311 2.0644 1.67766 2.26819 1.67581 2.48122C1.67396 2.69426 1.75586 2.8995 1.90386 3.05273L2.4783 3.62717Z" fill="#F5F3C2"/>
<path d="M2.4375 6.5C2.4375 6.71549 2.3519 6.92215 2.19952 7.07452C2.04715 7.2269 1.84049 7.3125 1.625 7.3125H0.8125C0.597012 7.3125 0.390349 7.2269 0.237976 7.07452C0.0856024 6.92215 0 6.71549 0 6.5C0 6.28451 0.0856024 6.07785 0.237976 5.92548C0.390349 5.7731 0.597012 5.6875 0.8125 5.6875H1.625C1.84049 5.6875 2.04715 5.7731 2.19952 5.92548C2.3519 6.07785 2.4375 6.28451 2.4375 6.5Z" fill="#F5F3C2"/>
<path d="M4.875 11.375V10.5625H8.125V11.375C8.125 11.806 7.95379 12.2193 7.64905 12.524C7.3443 12.8288 6.93098 13 6.5 13C6.06902 13 5.6557 12.8288 5.35095 12.524C5.04621 12.2193 4.875 11.806 4.875 11.375Z" fill="#F5F3C2"/>
<path d="M8.125 9.74982C8.13719 9.47357 8.294 9.22494 8.51256 9.05188C9.04287 8.63365 9.4297 8.0606 9.6193 7.41238C9.80891 6.76416 9.79185 6.07298 9.57051 5.4349C9.34918 4.79682 8.93455 4.24354 8.38427 3.85197C7.83398 3.46041 7.17538 3.25 6.5 3.25C5.82462 3.25 5.16602 3.46041 4.61573 3.85197C4.06545 4.24354 3.65082 4.79682 3.42949 5.4349C3.20815 6.07298 3.19109 6.76416 3.3807 7.41238C3.5703 8.0606 3.95713 8.63365 4.48744 9.05188C4.70681 9.22494 4.86281 9.47357 4.87419 9.74982H8.12581H8.125Z" fill="#F5F3C2"/>
</svg>
