<svg width="13" height="13" viewBox="0 0 13 13" fill="none" xmlns="http://www.w3.org/2000/svg">
<path d="M7.3125 0.8125C7.3125 0.597012 7.2269 0.390349 7.07452 0.237976C6.92215 0.0856024 6.71549 0 6.5 0C6.28451 0 6.07785 0.0856024 5.92548 0.237976C5.7731 0.390349 5.6875 0.597012 5.6875 0.8125V1.625C5.6875 1.84049 5.7731 2.04715 5.92548 2.19952C6.07785 2.3519 6.28451 2.4375 6.5 2.4375C6.71549 2.4375 6.92215 2.3519 7.07452 2.19952C7.2269 2.04715 7.3125 1.84049 7.3125 1.625V0.8125Z" fill="white"/>
<path d="M11.0964 3.05273C11.2444 2.8995 11.3263 2.69426 11.3245 2.48122C11.3226 2.26819 11.2372 2.0644 11.0865 1.91376C10.9359 1.76311 10.7321 1.67766 10.519 1.67581C10.306 1.67396 10.1008 1.75586 9.94754 1.90386L9.3731 2.4783C9.22509 2.63154 9.1432 2.83678 9.14505 3.04981C9.1469 3.26285 9.23235 3.46663 9.383 3.61727C9.53364 3.76792 9.73742 3.85337 9.95046 3.85522C10.1635 3.85707 10.3687 3.77518 10.522 3.62717L11.0964 3.05273Z" fill="white"/>
<path d="M13 6.5C13 6.71549 12.9144 6.92215 12.762 7.07452C12.6097 7.2269 12.403 7.3125 12.1875 7.3125H11.375C11.1595 7.3125 10.9528 7.2269 10.8005 7.07452C10.6481 6.92215 10.5625 6.71549 10.5625 6.5C10.5625 6.28451 10.6481 6.07785 10.8005 5.92548C10.9528 5.7731 11.1595 5.6875 11.375 5.6875H12.1875C12.403 5.6875 12.6097 5.7731 12.762 5.92548C12.9144 6.07785 13 6.28451 13 6.5Z" fill="white"/>
<path d="M2.4783 3.62717C2.55325 3.70477 2.6429 3.76667 2.74203 3.80925C2.84116 3.85184 2.94778 3.87425 3.05566 3.87519C3.16354 3.87613 3.27053 3.85557 3.37038 3.81471C3.47024 3.77386 3.56096 3.71353 3.63724 3.63724C3.71353 3.56096 3.77386 3.47024 3.81471 3.37038C3.85557 3.27053 3.87613 3.16354 3.87519 3.05566C3.87425 2.94778 3.85184 2.84116 3.80925 2.74203C3.76667 2.6429 3.70477 2.55325 3.62717 2.4783L3.05273 1.90386C2.8995 1.75586 2.69426 1.67396 2.48122 1.67581C2.26819 1.67766 2.0644 1.76311 1.91376 1.91376C1.76311 2.0644 1.67766 2.26819 1.67581 2.48122C1.67396 2.69426 1.75586 2.8995 1.90386 3.05273L2.4783 3.62717Z" fill="white"/>
<path d="M2.4375 6.5C2.4375 6.71549 2.3519 6.92215 2.19952 7.07452C2.04715 7.2269 1.84049 7.3125 1.625 7.3125H0.8125C0.597012 7.3125 0.390349 7.2269 0.237976 7.07452C0.0856024 6.92215 0 6.71549 0 6.5C0 6.28451 0.0856024 6.07785 0.237976 5.92548C0.390349 5.7731 0.597012 5.6875 0.8125 5.6875H1.625C1.84049 5.6875 2.04715 5.7731 2.19952 5.92548C2.3519 6.07785 2.4375 6.28451 2.4375 6.5Z" fill="white"/>
<path fill-rule="evenodd" clip-rule="evenodd" d="M4.5556 3.63196C5.13115 3.21992 5.80781 3 6.5 3C7.1922 3 7.86885 3.21992 8.4444 3.63196C9.01995 4.04399 9.46856 4.62964 9.73349 5.31484C9.99842 6.00005 10.0678 6.75404 9.93281 7.48149C9.79784 8.20893 9.46459 8.87716 8.9752 9.40167L8.65552 9.74359C8.52697 9.88137 8.42492 10.045 8.35535 10.225C8.28578 10.4051 8.24998 10.598 8.25 10.7929V11.1249C8.25 11.6222 8.06562 12.0991 7.73744 12.4508C7.40925 12.8024 6.96413 13 6.5 13C6.03587 13 5.59075 12.8024 5.26256 12.4508C4.93438 12.0991 4.75 11.6222 4.75 11.1249V10.793C4.75 10.5734 4.70452 10.3588 4.61931 10.1637C4.61383 10.1524 4.60866 10.141 4.60381 10.1293C4.53788 9.98793 4.45076 9.85751 4.34472 9.74384L4.0248 9.40167C3.53541 8.87716 3.20216 8.20893 3.06719 7.48149C2.93221 6.75404 3.00158 6.00005 3.26651 5.31484C3.53145 4.62964 3.98005 4.04399 4.5556 3.63196ZM5.20373 4.67138C5.58744 4.39669 6.03854 4.25007 6.5 4.25007C6.96146 4.25007 7.41256 4.39669 7.79627 4.67138C8.17997 4.94607 8.47904 5.3365 8.65566 5.7933C8.83228 6.25011 8.87853 6.75277 8.78854 7.23773C8.69857 7.72264 8.47633 8.16819 8.15013 8.51786L7.83048 8.85973C7.7185 8.97974 7.61747 9.11036 7.52851 9.24978H5.47146C5.38289 9.11093 5.28159 8.97982 5.1691 8.85929L4.84964 8.51761C4.5235 8.16797 4.30142 7.72258 4.21146 7.23773C4.12147 6.75277 4.16772 6.25011 4.34434 5.7933C4.52096 5.3365 4.82003 4.94607 5.20373 4.67138ZM7.09801 10.4999H5.90196C5.91171 10.5968 5.91667 10.6946 5.91667 10.793V11.1249C5.91667 11.2907 5.97813 11.4496 6.08752 11.5669C6.19692 11.6841 6.34529 11.7499 6.5 11.7499C6.65471 11.7499 6.80308 11.6841 6.91248 11.5669C7.02187 11.4496 7.08333 11.2907 7.08333 11.1249V10.7931C7.08332 10.695 7.08824 10.597 7.09801 10.4999Z" fill="white"/>
</svg>
