<svg width="34" height="48" viewBox="0 0 34 48" fill="none" xmlns="http://www.w3.org/2000/svg">
<path fill-rule="evenodd" clip-rule="evenodd" d="M10.7995 6.7246C9.39226 8.16944 8.5 10.314 8.5 13.0909V15.4293C11.0623 13.9105 13.99 13.0909 17 13.0909C20.01 13.0909 22.9377 13.9105 25.5 15.4293V13.0909C25.5 10.314 24.6077 8.16944 23.2005 6.7246C21.7933 5.27975 19.7046 4.36364 17 4.36364C14.2954 4.36364 12.2067 5.27975 10.7995 6.7246ZM29.75 19.0003V13.0909C29.75 9.32237 28.5173 6.01238 26.2057 3.63904C23.8942 1.2657 20.6704 0 17 0C13.3296 0 10.1058 1.2657 7.79427 3.63904C5.48274 6.01238 4.25 9.32237 4.25 13.0909V19.0003C1.51927 22.1792 0 26.2819 0 30.5455C0 35.1747 1.79107 39.6143 4.97918 42.8877C8.1673 46.161 12.4913 48 17 48C21.5087 48 25.8327 46.161 29.0208 42.8877C32.2089 39.6143 34 35.1747 34 30.5455C34 26.2819 32.4807 22.1792 29.75 19.0003ZM17 17.4545C13.6185 17.4545 10.3755 18.8338 7.98439 21.2888C5.5933 23.7438 4.25 27.0735 4.25 30.5455C4.25 34.0174 5.5933 37.3471 7.98439 39.8021C10.3755 42.2571 13.6185 43.6364 17 43.6364C20.3815 43.6364 23.6245 42.2571 26.0156 39.8021C28.4067 37.3471 29.75 34.0174 29.75 30.5455C29.75 27.0735 28.4067 23.7438 26.0156 21.2888C23.6245 18.8338 20.3815 17.4545 17 17.4545ZM13.9948 25.2781C14.7918 24.4597 15.8728 24 17 24C18.1272 24 19.2082 24.4597 20.0052 25.2781C20.8022 26.0964 21.25 27.2063 21.25 28.3636C21.25 29.5209 20.8022 30.6309 20.0052 31.4492C19.7403 31.7212 19.444 31.9536 19.125 32.1427V37.0909H14.875V32.1427C14.556 31.9536 14.2597 31.7212 13.9948 31.4492C13.1978 30.6309 12.75 29.5209 12.75 28.3636C12.75 27.2063 13.1978 26.0964 13.9948 25.2781Z" fill="#F5F3C2"/>
</svg>
