<svg width="955" height="800" viewBox="0 0 955 800" fill="none" xmlns="http://www.w3.org/2000/svg">
<path d="M1124.79 312.033L933.555 709.101" stroke="#2B2D3F"/>
<circle r="109.145" transform="matrix(4.37114e-08 -1 -1 -4.37114e-08 889.468 809.299)" stroke="#2B2D3F"/>
<circle r="65.6304" transform="matrix(4.37114e-08 -1 -1 -4.37114e-08 114.798 147.422)" stroke="#2B2D3F"/>
<circle r="114.298" transform="matrix(4.37114e-08 -1 -1 -4.37114e-08 114.797 147.423)" stroke="#2B2D3F"/>
<circle r="200.181" transform="matrix(4.37114e-08 -1 -1 -4.37114e-08 607.197 133.681)" stroke="#2B2D3F"/>
<circle r="128.039" transform="matrix(4.37114e-08 -1 -1 -4.37114e-08 607.197 133.681)" stroke="#2B2D3F"/>
<circle r="49.3125" transform="matrix(4.37114e-08 -1 -1 -4.37114e-08 428.846 800.424)" stroke="#2B2D3F"/>
<circle r="74.7913" transform="matrix(4.37114e-08 -1 -1 -4.37114e-08 889.468 809.299)" stroke="#2B2D3F"/>
<path d="M829.063 764.64L163.465 190.651" stroke="#2B2D3F"/>
<path d="M780.11 809.299L478.085 800.7" stroke="#2B2D3F"/>
</svg>
