<svg width="600" height="160" viewBox="0 0 600 160" fill="none" xmlns="http://www.w3.org/2000/svg">
<mask id="mask0_5232:1212" style="mask-type:alpha" maskUnits="userSpaceOnUse" x="0" y="0" width="600" height="160">
<rect width="600" height="160" rx="2" fill="#1A1C2E"/>
</mask>
<g mask="url(#mask0_5232:1212)">
<path d="M10.569 1.71497L20.3412 49.0119M10.569 1.71497L42.807 40.9216M10.569 1.71497L54.7311 28.9721M10.569 1.71497L60.9511 19.4881M10.569 1.71497L65.3051 8.81125M881.5 115.046L635.68 82.7578M673 235.399L612.355 214.005M585.298 356.442L547.487 333.105M315.038 372L283.056 333.105M87.0751 372L65.7306 268.694M20.3412 49.0119C22.7148 46.3151 30.5309 40.9216 42.807 40.9216M20.3412 49.0119C16.3582 47.8709 6.83703 46.2736 0.617022 49.0119M20.3412 49.0119L29.0205 91.019M42.807 40.9216C42.946 37.519 45.5255 30.3655 54.7311 28.9721M42.807 40.9216L72.7422 77.3278M54.7311 28.9721C54.8348 26.3417 56.2239 20.7622 60.9511 19.4881M54.7311 28.9721L97.9602 55.6534M60.9511 19.4881C60.4328 16.5313 60.5779 10.2565 65.3051 8.81125M60.9511 19.4881L110.711 37.0419M65.3051 8.81125C64.4758 6.86071 63.3147 2.71069 65.3051 1.71497M65.3051 8.81125L119.108 15.7866M97.9602 55.6534C98.7895 52.1395 102.501 43.4977 110.711 37.0419M97.9602 55.6534C90.6855 57.5884 75.4575 64.6323 72.7422 77.3278M97.9602 55.6534L175.71 103.641M110.711 37.0419C109.986 32.2819 110.649 21.3669 119.108 15.7866M110.711 37.0419L198.102 67.8706M119.108 15.7866C118.279 12.3407 117.118 4.20428 119.108 -0.774345M119.108 15.7866L211.164 27.7213M72.7422 77.3278C61.0614 77.0166 35.9639 79.3192 29.0205 91.019M72.7422 77.3278L127.496 143.917M29.0205 91.019C24.0104 87.5962 10.0714 83.3021 -5.60299 93.5083M29.0205 91.019L45.6076 171.299M211.164 27.7213C206.707 29.4468 197.854 39.8925 198.102 67.8706M211.164 27.7213C208.884 18.7413 206.313 -0.898812 214.274 -7.61995M211.164 27.7213L348.627 45.5426M198.102 67.8706C189.809 70.5179 173.72 81.3782 175.71 103.641M198.102 67.8706L331.833 115.046M175.71 103.641C161.398 106.694 131.717 119.024 127.496 143.917M175.71 103.641L287.981 172.936M127.496 143.917C104 140.598 54.7295 141.428 45.6076 171.299M127.496 143.917L202.717 235.399M45.6076 171.299C32.995 167.773 5.09543 163.769 -5.60299 175.967M45.6076 171.299L65.7306 268.694M348.627 45.5426C340.541 54.6269 325.861 81.2457 331.833 115.046M348.627 45.5426C346.864 34.5636 345.143 9.05843 352.359 -5.13064M348.627 45.5426L487.022 63.4849M331.833 115.046C317.112 121.508 287.733 142.133 287.981 172.936M331.833 115.046L464.63 161.893M287.981 172.936C262.135 179.443 208.897 201.047 202.717 235.399M287.981 172.936L413.004 250.101M202.717 235.399C164.696 234.88 84.0695 240.813 65.7306 268.694M202.717 235.399L283.056 333.105M65.7306 268.694C46.0994 263.715 2.66962 257.99 -14 274.917M487.022 63.4849C476.448 77.6976 457.166 117.277 464.63 161.893M487.022 63.4849C484.119 46.1103 482.046 6.32019 496.974 -13.8432M487.022 63.4849L635.68 82.7578M464.63 161.893C447.317 173.481 412.755 207.346 413.004 250.101M464.63 161.893L612.355 214.005M413.004 250.101C376.029 255.157 298.274 278.838 283.056 333.105M413.004 250.101L547.487 333.105M635.68 82.7578C625.106 105.062 605.637 162.538 612.355 214.005M635.68 82.7578C633.399 55.6398 632.321 -3.07696 646.254 -21M612.355 214.005C590.672 232.131 547.343 281.327 547.487 333.105" stroke="#2B2D3F"/>
<path d="M395.047 36.1053C399.423 44.1814 396.354 56.4088 392.525 60.117C390.942 66.6605 396.283 73.0082 400.728 71.3533C413.624 58.3349 403.118 40.9898 395.047 36.1053Z" fill="#EB8242"/>
<path d="M437.268 88.3438L429.44 51.8135C426.83 43.9841 407.962 44.2875 392.909 51.8135C366.815 64.859 366.815 90.9536 366.815 106.61C366.815 132.286 383.135 156.217 413.735 170.497C426.207 176.318 439.224 190.898 441.264 201.098C442.705 207.73 439.206 214.673 429.44 220.274C407.529 232.841 329.234 200.251 281.48 214.972C260.03 219.172 230.068 241.918 220.147 243.795C211.098 243.297 193 242.936 193 245.471C193 248.005 197.022 257.028 199.033 261.223H276.118H527.092C527.818 246.659 525.807 229.098 515.603 216.863C508.714 208.604 504.113 197.772 498.385 190.898C491.189 182.263 472.685 165.706 453.504 154.177C437.909 144.803 411.174 135.216 411.174 121.174C411.174 109.618 419.002 101.39 424.221 98.7806C431.223 95.2798 434.658 93.5619 437.268 88.3438Z" fill="white"/>
<path d="M359.117 51.4327C361.685 60.252 372.466 66.787 377.796 66.7304C383.523 70.2694 384.19 78.5379 379.866 80.4872C361.542 80.3011 356.814 60.581 359.117 51.4327Z" fill="#EB8242"/>
<path d="M479.016 62.2505L429.439 51.8131L413.782 62.2505L419.001 85.7348L437.267 88.3441L479.016 62.2505Z" fill="#EB8242"/>
<circle r="7.82808" transform="matrix(-1 0 0 1 400.737 70.0784)" fill="#202234"/>
<circle r="2.60936" transform="matrix(-1 0 0 1 404.074 65.4216)" fill="white"/>
<mask id="mask1_5232:1212" style="mask-type:alpha" maskUnits="userSpaceOnUse" x="357" y="42" width="123" height="69">
<path d="M479.68 62.1887L387.124 42.7031L357.895 62.1887L367.638 106.031L401.738 110.903L479.68 62.1887Z" fill="#FFAD72"/>
</mask>
<g mask="url(#mask1_5232:1212)">
<path d="M429.44 70.079C429.44 72.9612 431.776 75.2977 434.658 75.2977C437.541 75.2977 439.877 72.9612 439.877 70.079C439.877 69.706 439.838 69.3421 439.764 68.9913C439.263 66.6312 437.168 64.8603 434.658 64.8603C431.776 64.8603 429.44 67.1968 429.44 70.079Z" fill="#202234"/>
<path fill-rule="evenodd" clip-rule="evenodd" d="M478.662 60.2412L434.303 68.0693L435.012 72.0873L479.371 64.2592L478.662 60.2412Z" fill="#202234"/>
</g>
</g>
</svg>
