<svg width="34" height="34" viewBox="0 0 34 34" fill="none" xmlns="http://www.w3.org/2000/svg">
<path d="M29.3999 13.9589L34 9.27444L26.1353 1.26556L21.5352 5.95L29.3999 13.9589ZM18.9013 8.61333L1.85488 25.9911V34H9.71959L26.766 16.6411L18.9013 8.61333ZM29.6781 27.3889C29.6781 31.5256 24.9667 34 20.4037 34C19.5134 34 18.5488 33.8678 18.5488 33.8678V30.0333C18.5488 30.0333 19.4021 30.2222 20.4037 30.2222C23.2602 30.2222 25.9684 28.8433 25.9684 27.3889C25.9684 26.5011 25.078 25.7456 23.6869 25.1222L26.4321 22.3267C28.4168 23.5167 29.6781 25.1033 29.6781 27.3889ZM2.93071 19.55C1.13148 18.4922 0 17.1133 0 15.1111C0 11.7111 3.50573 10.1433 6.60338 8.76444C8.51391 7.89556 11.1293 6.72444 11.1293 5.66667C11.1293 4.89222 9.68249 3.77778 7.41953 3.77778C5.11948 3.77778 3.70977 4.93 3.70977 5.66667H0C0 2.55 3.1533 0 7.41953 0C11.5745 0 14.8391 2.49333 14.8391 5.66667C14.8391 9.19889 11.2591 10.8044 8.08729 12.2211C6.3437 12.9956 3.70977 14.1667 3.70977 15.1111C3.70977 15.6967 4.50737 16.2444 5.69449 16.7356L2.93071 19.55Z" fill="#F5F3C2"/>
</svg>
