<svg width="44" height="38" viewBox="0 0 44 38" fill="none" xmlns="http://www.w3.org/2000/svg">
<path d="M44 4.46922L40.9856 2.18472C40.5192 1.82095 39.945 1.62341 39.3539 1.62341C38.7628 1.62341 38.1885 1.82095 37.7222 2.18472L11.0763 23.756C9.44964 22.8957 7.56527 22.6596 5.77711 23.0921C3.98894 23.5247 2.42 24.596 1.36499 26.105C0.309984 27.6139 -0.158508 29.4566 0.047513 31.287C0.253534 33.1174 1.11989 34.8095 2.48386 36.0455C3.84783 37.2815 5.61556 37.9763 7.45502 37.9994C9.29448 38.0226 11.0791 37.3725 12.4737 36.1713C13.8682 34.97 14.7768 33.3003 15.0287 31.4756C15.2807 29.651 14.8586 27.7971 13.8418 26.262L19.2346 21.9422L37.7222 36.8538C38.1885 37.2176 38.7628 37.4151 39.3539 37.4151C39.945 37.4151 40.5192 37.2176 40.9856 36.8538L44 34.5832L26.2038 19.5193L44 4.46922ZM7.55019 34.4032C6.76802 34.4032 6.00342 34.171 5.35307 33.7358C4.70272 33.3007 4.19583 32.6823 3.89651 31.9587C3.59718 31.2352 3.51887 30.439 3.67146 29.6709C3.82405 28.9027 4.2007 28.1972 4.75378 27.6434C5.30686 27.0896 6.01152 26.7124 6.77866 26.5596C7.5458 26.4069 8.34097 26.4853 9.0636 26.785C9.78623 27.0847 10.4039 27.5922 10.8384 28.2434C11.273 28.8946 11.5049 29.6602 11.5049 30.4434C11.5013 31.4925 11.0834 32.4975 10.3426 33.2394C9.60171 33.9812 8.59793 34.3995 7.55019 34.4032V34.4032Z" fill="#FF7878"/>
<path d="M17.0222 14.3133L13.8418 11.738C14.8586 10.203 15.2807 8.34903 15.0287 6.52442C14.7768 4.6998 13.8682 3.03005 12.4737 1.82879C11.0791 0.627541 9.29448 -0.0225598 7.45502 0.000598037C5.61556 0.0237559 3.84783 0.71858 2.48386 1.95456C1.11989 3.19054 0.253534 4.88264 0.047513 6.71302C-0.158508 8.54341 0.309984 10.3861 1.36499 11.8951C2.42 13.404 3.98894 14.4754 5.77711 14.9079C7.56527 15.3404 9.44964 15.1044 11.0763 14.244L14.063 16.7501L17.0222 14.3133ZM7.55019 11.5442C6.76802 11.5442 6.00342 11.3119 5.35307 10.8768C4.70272 10.4417 4.19583 9.82328 3.89651 9.09972C3.59718 8.37616 3.51887 7.57997 3.67146 6.81184C3.82405 6.04371 4.2007 5.33814 4.75378 4.78435C5.30686 4.23056 6.01152 3.85343 6.77866 3.70064C7.5458 3.54785 8.34097 3.62626 9.0636 3.92597C9.78623 4.22568 10.4039 4.73322 10.8384 5.38441C11.273 6.0356 11.5049 6.80118 11.5049 7.58436C11.5013 8.63217 11.083 9.63581 10.3417 10.3754C9.60047 11.115 8.59666 11.5303 7.55019 11.5303V11.5442Z" fill="#FF7878"/>
</svg>
