<svg width="32" height="42" viewBox="0 0 32 42" fill="none" xmlns="http://www.w3.org/2000/svg">
<path d="M15.9929 8.7248e-05C11.6241 8.7248e-05 7.63919 1.68386 4.73139 4.58584C1.89469 7.42131 0.145745 11.3665 0.00355451 15.9032L0 15.9697V16.0397C0.202622 20.3664 2.32837 24.1751 6.17463 28.1307L8.67007 38.4259L8.69496 38.5029C9.05043 39.5426 9.73295 40.4072 10.5932 41.0128C11.4854 41.6429 12.5768 42 13.7321 42L18.6519 41.986L18.7265 41.979C19.8241 41.8877 20.8666 41.466 21.7125 40.7713C22.5337 40.0922 23.1557 39.161 23.4188 38.0618L26.2484 27.3851C29.924 23.9055 32 19.8799 32 15.3536C31.9973 13.3263 31.5805 11.3201 30.7744 9.45465C29.9683 7.58916 28.7894 5.90243 27.3077 4.49483C24.2766 1.59947 20.2157 -0.0136678 15.9929 8.7248e-05ZM7.26594 7.04325C8.40625 5.90803 9.76601 5.00935 11.2649 4.40029C12.7638 3.79123 14.3715 3.48414 15.9929 3.49716C19.2899 3.4824 22.4618 4.73886 24.83 6.99774C25.9713 8.07953 26.8796 9.37664 27.5007 10.8117C28.1219 12.2467 28.4431 13.7902 28.4452 15.3501C28.4452 18.8192 26.8349 22.0922 23.4543 25.1692L23.0704 25.5193L21.485 31.5018H10.6465L9.40591 26.3769L9.0611 26.0269C5.3357 22.3023 3.72895 19.1797 3.55477 15.9487C3.68985 12.2801 5.09753 9.2101 7.26594 7.04675V7.04325ZM11.4961 35.0023H20.5608L19.9742 37.1972L19.9636 37.2427C19.8834 37.5724 19.6962 37.8674 19.4303 38.0829C19.1604 38.3051 18.8306 38.4449 18.4812 38.4854L13.7285 38.5029C13.3465 38.5041 12.9737 38.3879 12.6621 38.1704C12.4027 37.9905 12.2026 37.7398 12.0862 37.4493L11.4926 35.0023H11.4961Z" fill="#F5F3C2"/>
</svg>
