<svg width="30" height="33" viewBox="0 0 30 33" fill="none" xmlns="http://www.w3.org/2000/svg">
<rect width="30" height="33"/>
<path d="M15.5308 24.24C14.6508 24.24 13.7974 24.0733 12.9708 23.74C12.1574 23.4067 11.4374 22.9333 10.8108 22.32L12.1708 20.74C12.6374 21.18 13.1708 21.54 13.7708 21.82C14.3708 22.0867 14.9708 22.22 15.5708 22.22C16.3174 22.22 16.8841 22.0667 17.2708 21.76C17.6574 21.4533 17.8508 21.0467 17.8508 20.54C17.8508 19.9933 17.6574 19.6 17.2708 19.36C16.8974 19.12 16.4174 18.8733 15.8308 18.62L14.0308 17.84C13.6041 17.6533 13.1841 17.4133 12.7708 17.12C12.3708 16.8267 12.0374 16.4533 11.7708 16C11.5174 15.5467 11.3908 15 11.3908 14.36C11.3908 13.6667 11.5774 13.0467 11.9508 12.5C12.3374 11.94 12.8574 11.5 13.5108 11.18C14.1774 10.8467 14.9374 10.68 15.7908 10.68C16.5508 10.68 17.2841 10.8333 17.9908 11.14C18.6974 11.4333 19.3041 11.8333 19.8108 12.34L18.6308 13.82C18.2174 13.4733 17.7774 13.2 17.3108 13C16.8574 12.8 16.3508 12.7 15.7908 12.7C15.1774 12.7 14.6774 12.84 14.2908 13.12C13.9174 13.3867 13.7308 13.76 13.7308 14.24C13.7308 14.5733 13.8241 14.8533 14.0108 15.08C14.2108 15.2933 14.4708 15.48 14.7908 15.64C15.1108 15.7867 15.4508 15.9333 15.8108 16.08L17.5908 16.82C18.3641 17.1533 18.9974 17.5933 19.4908 18.14C19.9841 18.6733 20.2308 19.4133 20.2308 20.36C20.2308 21.0667 20.0441 21.7133 19.6708 22.3C19.2974 22.8867 18.7574 23.36 18.0508 23.72C17.3574 24.0667 16.5174 24.24 15.5308 24.24Z" fill="white"/>
<rect x="8.92871" y="16.7378" width="13" height="2" transform="rotate(-6.46221 8.92871 16.7378)" fill="#F7F7F7"/>
</svg>
