<svg width="287" height="335" viewBox="0 0 287 335" fill="none" xmlns="http://www.w3.org/2000/svg">
<g opacity="0.2">
<mask id="mask0" mask-type="alpha" maskUnits="userSpaceOnUse" x="0" y="0" width="287" height="335">
<rect width="287" height="335" fill="#2B2D3F"/>
</mask>
<g mask="url(#mask0)">
<path fill-rule="evenodd" clip-rule="evenodd" d="M139.205 112.388L9.38897 242.205L-21.209 211.607L108.607 81.7905L139.205 112.388Z" fill="#101224"/>
<path d="M177.999 97.09C177.999 126.963 153.782 151.18 123.909 151.18C94.0363 151.18 69.8193 126.963 69.8193 97.09C69.8193 67.2169 94.0363 43 123.909 43C153.782 43 177.999 67.2169 177.999 97.09Z" fill="#101224"/>
<path d="M48.1801 226.905C48.1801 256.778 23.9632 280.995 -5.90995 280.995C-35.7831 280.995 -60 256.778 -60 226.905C-60 197.032 -35.7831 172.815 -5.90995 172.815C23.9632 172.815 48.1801 197.032 48.1801 226.905Z" fill="#101224"/>
</g>
</g>
</svg>
