<svg width="440" height="414" viewBox="0 0 440 414" fill="none" xmlns="http://www.w3.org/2000/svg">
<mask id="mask0_5631_1375" style="mask-type:alpha" maskUnits="userSpaceOnUse" x="0" y="0" width="440" height="414">
<rect width="440" height="414" fill="#1A1C2E"/>
</mask>
<g mask="url(#mask0_5631_1375)">
<circle r="99.8346" transform="matrix(-8.74228e-08 1 1 8.74228e-08 100.335 -10.0436)" stroke="#2B2D3F"/>
<circle r="50.6787" transform="matrix(-8.74228e-08 1 1 8.74228e-08 405.586 425.076)" stroke="#2B2D3F"/>
<path d="M147.073 443.897C177.498 443.897 202.17 419.051 202.17 388.394C202.17 357.737 177.498 332.891 147.073 332.891C116.647 332.891 91.9753 357.737 91.9753 388.394C91.9753 419.051 116.647 443.897 147.073 443.897Z" stroke="#2B2D3F"/>
<path d="M405.182 512.976C453.953 512.976 493.486 473.62 493.486 425.076C493.486 376.533 453.953 337.177 405.182 337.177C356.41 337.177 316.877 376.533 316.877 425.076C316.877 473.62 356.41 512.976 405.182 512.976Z" stroke="#2B2D3F"/>
<circle r="68.2777" transform="matrix(-8.74228e-08 1 1 8.74228e-08 100.335 -10.0438)" stroke="#2B2D3F"/>
<path d="M160.616 69.8601L298.597 274.287M352.587 354.276L298.597 274.287M298.597 274.287L446.742 31.0244" stroke="#2B2D3F"/>
</g>
</svg>
