<svg width="30" height="33" viewBox="0 0 30 33" fill="none" xmlns="http://www.w3.org/2000/svg">
<path d="M15.0073 24.24C14.0073 24.24 13.1339 24.04 12.3873 23.64C11.6406 23.24 11.0606 22.6 10.6473 21.72C10.2473 20.84 10.0473 19.6867 10.0473 18.26V10.92H12.3673V18.44C12.3673 19.3867 12.4739 20.14 12.6873 20.7C12.9139 21.2467 13.2273 21.64 13.6273 21.88C14.0273 22.1067 14.4873 22.22 15.0073 22.22C15.5406 22.22 16.0073 22.1067 16.4073 21.88C16.8206 21.64 17.1406 21.2467 17.3673 20.7C17.6073 20.14 17.7273 19.3867 17.7273 18.44V10.92H19.9473V18.26C19.9473 19.6867 19.7473 20.84 19.3473 21.72C18.9473 22.6 18.3739 23.24 17.6273 23.64C16.8939 24.04 16.0206 24.24 15.0073 24.24Z" fill="white"/>
<rect x="8" y="22" width="14" height="2" fill="#F7F7F7"/>
</svg>
